<svg width="80" height="26" viewBox="0 0 80 26" fill="none" xmlns="http://www.w3.org/2000/svg">
<path fill-rule="evenodd" clip-rule="evenodd" d="M14.0411 24.3518L8.01359 13.8692H4.34469V24.3518H1.72405V1.42119H4.34469V11.4452H7.81704L13.3859 1.42119H16.5307L10.1756 12.5917L17.2186 24.3518H14.0411ZM11.349 12.5786L19.0068 25.3652H13.4548L7.4273 14.8827H5.3581V25.3652H0.710632V0.407781H5.3581V10.4317H7.22075L12.7896 0.407781H18.2732L11.349 12.5786ZM36.8585 25.3652H32.2111V9.79107L26.0174 25.3652H20.4837V0.407781H25.1312V15.9819L31.3248 0.407781H36.8585V25.3652ZM24.1177 21.2726V1.42119H21.4971V24.3518H25.3298L33.2245 4.50045V24.3518H35.8451V1.42119H32.0124L24.1177 21.2726ZM57.2868 0.407781V25.3652H52.6393V14.8827H45.9525V25.3652H41.305V0.407781H45.9525V10.4317H52.6393V0.407781H57.2868ZM53.6527 11.4452H44.9391V1.42119H42.3184V24.3518H44.9391V13.8692H53.6527V24.3518H56.2733V1.42119H53.6527V11.4452ZM77.867 19.7935L77.8653 19.7976C77.0699 21.6926 75.9846 23.1845 74.5717 24.1937C73.1791 25.1885 71.6196 25.6928 69.9206 25.6928C68.2217 25.6928 66.6622 25.1885 65.2696 24.1937C63.8566 23.1845 62.7714 21.6926 61.976 19.7976L61.9743 19.7935C61.1673 17.8473 60.7832 15.5346 60.7832 12.8865C60.7832 10.2399 61.1669 7.93678 61.9751 6.01025C62.7695 4.09532 63.8541 2.59036 65.2696 1.57929C66.6622 0.584558 68.2217 0.0802002 69.9206 0.0802002C71.6196 0.0802002 73.1791 0.584558 74.5717 1.57929C75.9872 2.59036 77.0718 4.09531 77.8661 6.01022C78.6744 7.93676 79.058 10.2399 79.058 12.8865C79.058 15.5346 78.674 17.8473 77.867 19.7935ZM76.9309 6.40042C76.1883 4.60964 75.2056 3.27748 73.9826 2.40394C72.7597 1.53039 71.4057 1.09361 69.9206 1.09361C68.4356 1.09361 67.0816 1.53039 65.8586 2.40394C64.6357 3.27748 63.6529 4.60964 62.9104 6.40042C62.1679 8.16935 61.7967 10.3314 61.7967 12.8865C61.7967 15.4416 62.1679 17.6146 62.9104 19.4054C63.6529 21.1743 64.6357 22.4955 65.8586 23.3691C67.0816 24.2426 68.4356 24.6794 69.9206 24.6794C71.4057 24.6794 72.7597 24.2426 73.9826 23.3691C75.2056 22.4955 76.1883 21.1743 76.9309 19.4054C77.6734 17.6146 78.0446 15.4416 78.0446 12.8865C78.0446 10.3314 77.6734 8.16935 76.9309 6.40042ZM71.9743 5.39606L71.9638 5.38672C71.2933 4.78675 70.6206 4.53112 69.9206 4.53112C69.1382 4.53112 68.4359 4.79916 67.7792 5.38672L67.7736 5.39172L67.7679 5.39664C67.1145 5.96409 66.5408 6.85806 66.0979 8.16667L66.0964 8.17121C65.6621 9.4344 65.4307 10.9984 65.4307 12.8865C65.4307 14.7468 65.6716 16.3086 66.1261 17.5932C66.5884 18.8997 67.1723 19.8134 67.8344 20.4098C68.5258 20.9914 69.2136 21.2419 69.9206 21.2419C70.7099 21.2419 71.4141 20.9797 72.0678 20.4139C72.7304 19.8188 73.3036 18.9176 73.7442 17.6367C74.1796 16.3491 74.4106 14.7727 74.4106 12.8865C74.4106 11.0263 74.1697 9.46439 73.7152 8.17982C73.2526 6.87255 72.6598 5.97614 71.985 5.40511L71.9743 5.39606ZM74.7033 17.964C74.2229 19.3617 73.5677 20.4318 72.7378 21.1743C71.908 21.895 70.9689 22.2553 69.9206 22.2553C68.9379 22.2553 68.0207 21.895 67.169 21.1743C66.3391 20.4318 65.673 19.3508 65.1707 17.9312C64.6684 16.5117 64.4173 14.8301 64.4173 12.8865C64.4173 10.921 64.6575 9.23945 65.138 7.84177C65.6184 6.42225 66.2736 5.35216 67.1035 4.63148C67.9333 3.88897 68.8724 3.51771 69.9206 3.51771C70.9034 3.51771 71.8097 3.88897 72.6396 4.63148C73.4913 5.35216 74.1683 6.42225 74.6706 7.84177C75.1728 9.26128 75.424 10.9429 75.424 12.8865C75.424 14.852 75.1838 16.5445 74.7033 17.964Z" fill="#29EDFF"/>
</svg>
